# xmcd
#
# Track frame offsets:
#	150
#	11800
#	31600
#	49692
#	63515
#	85680
#	106557
#	123082
#	135990
#	148152
#	163765
#	174037
#	194837
#	213437
#	231700
#	246475
#	259580
#	269307
#	288887
#	308632
#
# Disc length: 4356
#
# Revision: 1
# Processed by: cddbd v1.5.1PL0 Copyright (c) Steve Scherf et al.
# Submitted via: EasyCDDAExtractor 4.6.9.1
# Normalized: r0:TRMNUM
#
DISCID=16110214
DTITLE=Daniel O'Donnell - Irish Collection
DYEAR=1996
DGENRE=Country
TTITLE0=Pretty Little Girl From Omagh
TTITLE1=The Isle Of Innsfree
TTITLE2=Sing An Old Irish Song
TTITLE3=Forty Shades Of Green
TTITLE4=Three Leaf Shamrock
TTITLE5=Dublin In The Rare Auld Times
TTITLE6=Blue Hills Of Breffni
TTITLE7=Green Glens Of Antrim
TTITLE8=The Old Dungarvan Oak
TTITLE9=My Donegal Shore
TTITLE10=Home Is Where The Heart Is
TTITLE11=The Mountains Of Mourne
TTITLE12=Far Far From Home
TTITLE13=Danny Boy
TTITLE14=Any Tipperary Town
TTITLE15=Irish Eyes
TTITLE16=Our House Is A Home
TTITLE17=Galway Bay
TTITLE18=Come Back Paddy Reilly To Ballyjamesduff
TTITLE19=I'll Take You Home Again Kathleen
EXTD=
EXTT0=
EXTT1=
EXTT2=
EXTT3=
EXTT4=
EXTT5=
EXTT6=
EXTT7=
EXTT8=
EXTT9=
EXTT10=
EXTT11=
EXTT12=
EXTT13=
EXTT14=
EXTT15=
EXTT16=
EXTT17=
EXTT18=
EXTT19=
PLAYORDER=
